<svg width="32" height="32" viewBox="0 0 32 32" fill="none" xmlns="http://www.w3.org/2000/svg">
<path d="M24 17.3307H17.3333V23.9973C17.3333 24.351 17.1928 24.6901 16.9428 24.9401C16.6927 25.1902 16.3536 25.3307 16 25.3307C15.6464 25.3307 15.3072 25.1902 15.0572 24.9401C14.8071 24.6901 14.6667 24.351 14.6667 23.9973V17.3307H7.99999C7.64637 17.3307 7.30723 17.1902 7.05718 16.9401C6.80713 16.6901 6.66666 16.351 6.66666 15.9973C6.66666 15.6437 6.80713 15.3046 7.05718 15.0545C7.30723 14.8045 7.64637 14.664 7.99999 14.664H14.6667V7.99733C14.6667 7.64371 14.8071 7.30457 15.0572 7.05453C15.3072 6.80448 15.6464 6.664 16 6.664C16.3536 6.664 16.6927 6.80448 16.9428 7.05453C17.1928 7.30457 17.3333 7.64371 17.3333 7.99733V14.664H24C24.3536 14.664 24.6928 14.8045 24.9428 15.0545C25.1928 15.3046 25.3333 15.6437 25.3333 15.9973C25.3333 16.351 25.1928 16.6901 24.9428 16.9401C24.6928 17.1902 24.3536 17.3307 24 17.3307Z" fill="white"/>
</svg>
