<svg width="24" height="24" viewBox="0 0 24 24" fill="none" xmlns="http://www.w3.org/2000/svg">
<path d="M3.4 17C3.01667 17 2.73734 16.875 2.562 16.625C2.38734 16.375 2.36667 16.0667 2.5 15.7L5.375 8.00001C5.475 7.71668 5.66667 7.47901 5.95 7.28701C6.23333 7.09568 6.525 7.00001 6.825 7.00001C7.10834 7.00001 7.396 7.09568 7.688 7.28701C7.97934 7.47901 8.175 7.71668 8.275 8.00001L11.175 15.725C11.3083 16.075 11.2877 16.375 11.113 16.625C10.9377 16.875 10.6583 17 10.275 17C10.0917 17 9.91267 16.9417 9.738 16.825C9.56267 16.7083 9.44167 16.5583 9.375 16.375L8.75 14.6H4.9L4.325 16.35C4.25833 16.5333 4.13767 16.6873 3.963 16.812C3.78767 16.9373 3.6 17 3.4 17ZM5.5 12.9H8.1L6.9 9.15001H6.75L5.5 12.9ZM14.925 17C14.5917 17 14.304 16.879 14.062 16.637C13.8207 16.3957 13.7 16.1083 13.7 15.775C13.7 15.5917 13.7417 15.379 13.825 15.137C13.9083 14.8957 14.0083 14.7083 14.125 14.575L18.75 8.80001H14.8C14.55 8.80001 14.3377 8.71235 14.163 8.53701C13.9877 8.36235 13.9 8.15001 13.9 7.90001C13.9 7.65001 13.9877 7.43735 14.163 7.26201C14.3377 7.08735 14.55 7.00001 14.8 7.00001H19.725C20.0583 7.00001 20.346 7.12068 20.588 7.36201C20.8293 7.60401 20.95 7.90001 20.95 8.25001C20.95 8.43335 20.9127 8.64168 20.838 8.87501C20.7627 9.10835 20.6667 9.29168 20.55 9.42501L15.95 15.2H20.1C20.35 15.2 20.5627 15.2873 20.738 15.462C20.9127 15.6373 21 15.85 21 16.1C21 16.35 20.9127 16.5627 20.738 16.738C20.5627 16.9127 20.35 17 20.1 17H14.925ZM10.2 5.00001C9.96667 5.00001 9.80834 4.90001 9.725 4.70001C9.64167 4.50001 9.68334 4.31668 9.85 4.15001L11.65 2.35001C11.6833 2.31668 11.8 2.26668 12 2.20001C12.0333 2.20001 12.15 2.25001 12.35 2.35001L14.15 4.15001C14.3167 4.31668 14.3583 4.50001 14.275 4.70001C14.1917 4.90001 14.0333 5.00001 13.8 5.00001H10.2ZM12 21.8C11.9667 21.8 11.85 21.75 11.65 21.65L9.85 19.85C9.68334 19.6833 9.64167 19.5 9.725 19.3C9.80834 19.1 9.96667 19 10.2 19H13.8C14.0333 19 14.1917 19.1 14.275 19.3C14.3583 19.5 14.3167 19.6833 14.15 19.85L12.35 21.65C12.3167 21.6833 12.2 21.7333 12 21.8Z" fill="white"/>
</svg>
