<svg width="24" height="24" viewBox="0 0 24 24" fill="none" xmlns="http://www.w3.org/2000/svg">
<path d="M18.9999 4H16.9999C16.7347 4 16.4804 4.10536 16.2928 4.29289C16.1053 4.48043 15.9999 4.73478 15.9999 5C15.9999 5.26522 16.1053 5.51957 16.2928 5.70711C16.4804 5.89464 16.7347 6 16.9999 6H17.9999V18H16.9999C16.7347 18 16.4804 18.1054 16.2928 18.2929C16.1053 18.4804 15.9999 18.7348 15.9999 19C15.9999 19.2652 16.1053 19.5196 16.2928 19.7071C16.4804 19.8946 16.7347 20 16.9999 20H18.9999C19.2652 20 19.5195 19.8946 19.707 19.7071C19.8946 19.5196 19.9999 19.2652 19.9999 19V5C19.9999 4.73478 19.8946 4.48043 19.707 4.29289C19.5195 4.10536 19.2652 4 18.9999 4ZM11.7999 7.4C11.6408 7.18783 11.4039 7.04756 11.1414 7.01005C10.8788 6.97254 10.6121 7.04087 10.3999 7.2C10.1878 7.35913 10.0475 7.59603 10.01 7.85858C9.97248 8.12113 10.0408 8.38783 10.1999 8.6L11.9999 11H3.99994C3.73472 11 3.48037 11.1054 3.29283 11.2929C3.1053 11.4804 2.99994 11.7348 2.99994 12C2.99994 12.2652 3.1053 12.5196 3.29283 12.7071C3.48037 12.8946 3.73472 13 3.99994 13H12.0899L10.3699 15.44C10.2932 15.5475 10.2385 15.6691 10.209 15.7978C10.1796 15.9266 10.1759 16.0599 10.1982 16.19C10.2205 16.3202 10.2684 16.4446 10.339 16.5562C10.4097 16.6678 10.5018 16.7642 10.6099 16.84C10.7799 16.9587 10.9826 17.0216 11.1899 17.02C11.3486 17.0193 11.5048 16.9808 11.6456 16.9078C11.7865 16.8347 11.9079 16.7292 11.9999 16.6L14.8199 12.6C14.9451 12.4287 15.0125 12.2221 15.0125 12.01C15.0125 11.7979 14.9451 11.5913 14.8199 11.42L11.7999 7.4Z" fill="white"/>
</svg>
