<svg width="24" height="32" viewBox="0 0 24 32" fill="none" xmlns="http://www.w3.org/2000/svg">
<path d="M19 13.56C19.0005 13.7592 18.9675 13.956 18.9035 14.136C18.8394 14.3159 18.746 14.4745 18.63 14.6L12.63 21.04C12.451 21.2361 12.2266 21.3433 11.995 21.3433C11.7633 21.3433 11.5389 21.2361 11.36 21.04L5.35997 14.3733C5.15575 14.147 5.02733 13.8218 5.00295 13.4692C4.97857 13.1167 5.06023 12.7656 5.22997 12.4933C5.39971 12.221 5.64362 12.0498 5.90805 12.0173C6.17247 11.9848 6.43575 12.0937 6.63997 12.32L12 18.28L17.36 12.52C17.5068 12.357 17.6855 12.2534 17.875 12.2215C18.0646 12.1897 18.257 12.2309 18.4295 12.3403C18.6021 12.4497 18.7475 12.6228 18.8486 12.8389C18.9497 13.0551 19.0022 13.3053 19 13.56Z" fill="white"/>
</svg>
